<svg xmlns="http://www.w3.org/2000/svg" viewBox="0 0 128 128" role="img" aria-labelledby="title desc">
  <title id="title">Grind Set logo</title>
  <desc id="desc">A green flame with a check mark</desc>
  <defs>
    <linearGradient id="flame" x1="24" y1="18" x2="100" y2="112" gradientUnits="userSpaceOnUse">
      <stop stop-color="#19d391"/>
      <stop offset="1" stop-color="#008f70"/>
    </linearGradient>
  </defs>
  <path fill="url(#flame)" d="M79.7 8.4c3.2 19.8-2.4 29.6-11.8 39.5 3.2-16.3-3-25.2-12.5-34.8 1.2 20.8-16.7 25.6-23.5 42.7-7.8 19.6 1.2 48.9 27.9 55.3C31 95.2 42.7 75.4 55.5 64.4c-2.4 12.8 2.6 20.8 12.2 26.7 8.5-8.2 14.9-20.2 15.2-33.9 8.8 11.4 14.4 22.3 13.1 34.5-2 18-16.5 30.5-33.7 31.6 25.8 3.5 48.4-14.6 49.8-39.7 1-18.7-9.9-34.7-32.4-48.8z"/>
  <path fill="#ffffff" stroke="#087f68" stroke-linecap="round" stroke-linejoin="round" stroke-width="7" d="m22 70 19 18 38-39"/>
</svg>
